<?xml version="1.0" encoding="utf-8"?>
<!-- Generator: Adobe Illustrator 24.0.0, SVG Export Plug-In . SVG Version: 6.00 Build 0)  -->
<svg version="1.1" id="Layer_1" xmlns="http://www.w3.org/2000/svg" xmlns:xlink="http://www.w3.org/1999/xlink" x="0px" y="0px"
	 viewBox="0 0 170 170" style="enable-background:new 0 0 170 170;" xml:space="preserve">
<style type="text/css">
	.st0{fill:#0085B9;}
	.st1{fill:#FFFFFF;}
</style>
<rect y="-0.4" class="st0" width="170" height="170.8"/>
<g>
	<g>
		<g>
			<path class="st1" d="M110.1,62.2c2.9,17.1-12,31.8-29.4,28.9c-10.5-1.7-19.1-10.1-20.8-20.5c-2.9-17.1,12-31.8,29.4-28.9
				C99.9,43.4,108.4,51.8,110.1,62.2"/>
			<path class="st1" d="M129.4,122.4l-0.1-0.5c-3.2-11.4-9.4-21.8-17.7-30.1c-1-1-2.7-1-3.7,0c-6.8,7-17,10.9-28.1,9.1
				c-6.9-1.1-13-4.4-17.6-9.1c-1-1-2.7-1-3.7,0c-8.3,8.4-14.5,18.7-17.7,30.1l-0.1,0.5c-0.9,3.1,1.6,6.2,5,6.2h12.6h50.5h15.6
				C127.8,128.6,130.2,125.5,129.4,122.4"/>
		</g>
	</g>
</g>
</svg>
